<?xml version="1.0" encoding="UTF-8" standalone="no"?>
<!-- Created with Inkscape (http://www.inkscape.org/) -->

<svg
   xmlns:dc="http://purl.org/dc/elements/1.1/"
   xmlns:cc="http://creativecommons.org/ns#"
   xmlns:rdf="http://www.w3.org/1999/02/22-rdf-syntax-ns#"
   xmlns:svg="http://www.w3.org/2000/svg"
   xmlns="http://www.w3.org/2000/svg"
   xmlns:sodipodi="http://sodipodi.sourceforge.net/DTD/sodipodi-0.dtd"
   xmlns:inkscape="http://www.inkscape.org/namespaces/inkscape"
   id="svg2"
   version="1.1"
   inkscape:version="0.48.5 r10040"
   width="200"
   height="200"
   xml:space="preserve"
   sodipodi:docname="samtaloteket_logo_svart_kvadrat.svg"
   inkscape:export-filename="/Users/johan/Documents/Programmering/git/samtaloteket.github.io/assets/img/samtaloteket_logo_svart_kvadrat.png"
   inkscape:export-xdpi="225"
   inkscape:export-ydpi="225"><metadata
     id="metadata8"><rdf:RDF><cc:Work
         rdf:about=""><dc:format>image/svg+xml</dc:format><dc:type
           rdf:resource="http://purl.org/dc/dcmitype/StillImage" /><dc:title></dc:title></cc:Work></rdf:RDF></metadata><defs
     id="defs6" /><sodipodi:namedview
     pagecolor="#ffffff"
     bordercolor="#666666"
     borderopacity="1"
     objecttolerance="10"
     gridtolerance="10"
     guidetolerance="10"
     inkscape:pageopacity="0"
     inkscape:pageshadow="2"
     inkscape:window-width="1436"
     inkscape:window-height="855"
     id="namedview4"
     showgrid="false"
     inkscape:zoom="0.93086463"
     inkscape:cx="29.54243"
     inkscape:cy="68.175003"
     inkscape:window-x="4"
     inkscape:window-y="1"
     inkscape:window-maximized="1"
     inkscape:current-layer="g10" /><g
     id="g10"
     inkscape:groupmode="layer"
     inkscape:label="ink_ext_XXXXXX"
     transform="matrix(1.25,0,0,-1.25,0,199.99997)"><g
       id="g14"
       transform="matrix(0.43219678,0,0,0.43219678,3.9977287,51.967505)"><g
         transform="matrix(1,0,0,-1,0,10.525)"
         id="text16"><path
           d="m 1.4314035,-5.0520122 c 1.5998022,3.8732055 4.4205146,5.85191413 8.3779201,5.85191413 5.4309074,0 8.7989214,-3.41011363 8.7989214,-8.79892123 0,-4.5468067 -2.020809,-6.4834177 -6.441316,-8.8831217 -3.9153052,-2.147103 -6.6518157,-2.989111 -6.6518157,-6.651816 0,-2.947004 1.8524074,-4.841511 4.8415117,-4.841511 2.189203,0 3.87321,0.926204 4.715211,2.652306 l 2.105005,-1.263003 c -1.389302,-2.526004 -3.620611,-3.831109 -6.651816,-3.831109 -4.6310062,0 -7.7885184,2.989111 -7.7885184,7.241217 0,4.210006 2.7786115,6.146617 7.5359184,8.630521 3.536405,1.852403 5.725614,3.241711 5.725614,6.9465167 0,4.0416057 -2.27341,6.3571153 -6.0624151,6.3571153 -2.9470041,0 -5.3046136,-1.684007 -6.1466148,-4.6731112 l -2.3576056,1.263003"
           style="font-size:42.10010147px;font-variant:normal;font-weight:300;writing-mode:lr-tb;fill:#050606;fill-opacity:1;fill-rule:nonzero;stroke:none;font-family:Futura;-inkscape-font-specification:FuturaPT-Light"
           id="path3031"
           inkscape:connector-curvature="0" /><path
           d="m 26.733394,0 2.778607,0 3.99951,-10.188225 12.293229,0 L 49.635849,0 52.624957,0 39.952826,-31.280375 26.733394,0 m 7.704319,-12.54583 5.346713,-13.093132 5.136212,13.093132 -10.482925,0"
           style="font-size:42.10010147px;font-variant:normal;font-weight:300;writing-mode:lr-tb;fill:#050606;fill-opacity:1;fill-rule:nonzero;stroke:none;font-family:Futura;-inkscape-font-specification:FuturaPT-Light"
           id="path3033"
           inkscape:connector-curvature="0" /><path
           d="M 74.726921,1.1788028 85.462447,-22.986655 87.693752,0 90.514459,0 86.64125,-31.364576 74.684821,-4.5889111 63.149393,-31.364576 59.065683,0 61.88639,0 64.159795,-22.986655 74.726921,1.1788028"
           style="font-size:42.10010147px;font-variant:normal;font-weight:300;writing-mode:lr-tb;fill:#050606;fill-opacity:1;fill-rule:nonzero;stroke:none;font-family:Futura;-inkscape-font-specification:FuturaPT-Light"
           id="path3035"
           inkscape:connector-curvature="0" /><path
           d="m 107.7758,0 2.73651,0 0,-27.533466 8.29372,0 0,-2.568107 -19.323946,0 0,2.568107 8.293716,0 0,27.533466"
           style="font-size:42.10010147px;font-variant:normal;font-weight:300;writing-mode:lr-tb;fill:#050606;fill-opacity:1;fill-rule:nonzero;stroke:none;font-family:Futura;-inkscape-font-specification:FuturaPT-Light"
           id="path3037"
           inkscape:connector-curvature="0" /><path
           d="m 119.18558,0 2.77861,0 3.99951,-10.188225 12.29323,0 L 142.08804,0 145.07715,0 132.40501,-31.280375 119.18558,0 m 7.70432,-12.54583 5.34671,-13.093132 5.13622,13.093132 -10.48293,0"
           style="font-size:42.10010147px;font-variant:normal;font-weight:300;writing-mode:lr-tb;fill:#050606;fill-opacity:1;fill-rule:nonzero;stroke:none;font-family:Futura;-inkscape-font-specification:FuturaPT-Light"
           id="path3039"
           inkscape:connector-curvature="0" /><path
           d="m 153.45498,0 13.05103,0 0,-2.5681062 -10.31453,0 0,-27.5334668 -2.7365,0 0,30.101573"
           style="font-size:42.10010147px;font-variant:normal;font-weight:300;writing-mode:lr-tb;fill:#050606;fill-opacity:1;fill-rule:nonzero;stroke:none;font-family:Futura;-inkscape-font-specification:FuturaPT-Light"
           id="path3041"
           inkscape:connector-curvature="0" /><path
           d="m 202.45964,-14.987636 c 0,-4.252106 -1.6419,-8.251623 -4.71521,-11.240727 -3.0312,-2.989104 -6.98862,-4.546811 -11.40912,-4.546811 -4.42051,0 -8.33583,1.557707 -11.36703,4.546811 -3.07331,2.989104 -4.71521,6.946521 -4.71521,11.240727 0,4.210006 1.684,8.1674226 4.71521,11.1565268 3.0312,2.98910418 6.98862,4.63101113 11.36703,4.63101113 4.3363,0 8.33582,-1.64190695 11.40912,-4.63101113 3.03121,-2.9470042 4.71521,-6.9044208 4.71521,-11.1565268 m -16.12433,13.345732 c -7.36752,0 -13.17734,-5.9361217 -13.17734,-13.345732 0,-7.493811 5.89403,-13.387832 13.17734,-13.387832 7.32541,0 13.21943,5.936121 13.21943,13.387832 0,7.4096103 -5.85192,13.345732 -13.21943,13.345732"
           style="font-size:42.10010147px;font-variant:normal;font-weight:300;writing-mode:lr-tb;fill:#050606;fill-opacity:1;fill-rule:nonzero;stroke:none;font-family:Futura;-inkscape-font-specification:FuturaPT-Light"
           id="path3043"
           inkscape:connector-curvature="0" /><path
           d="m 214.87928,0 2.73651,0 0,-27.533466 8.29372,0 0,-2.568107 -19.32395,0 0,2.568107 8.29372,0 0,27.533466"
           style="font-size:42.10010147px;font-variant:normal;font-weight:300;writing-mode:lr-tb;fill:#050606;fill-opacity:1;fill-rule:nonzero;stroke:none;font-family:Futura;-inkscape-font-specification:FuturaPT-Light"
           id="path3045"
           inkscape:connector-curvature="0" /><path
           d="m 232.60288,0 14.90344,0 0,-2.5681062 -12.16693,0 0,-12.9668308 12.16693,0 0,-2.568107 -12.16693,0 0,-9.430422 12.16693,0 0,-2.568107 -14.90344,0 0,30.101573"
           style="font-size:42.10010147px;font-variant:normal;font-weight:300;writing-mode:lr-tb;fill:#050606;fill-opacity:1;fill-rule:nonzero;stroke:none;font-family:Futura;-inkscape-font-specification:FuturaPT-Light"
           id="path3047"
           inkscape:connector-curvature="0" /><path
           d="m 257.60966,0 2.7365,0 0,-15.282337 L 274.2392,0 l 3.95741,0 -14.94554,-15.703338 14.27193,-14.398235 -3.5785,0 -13.59834,14.103534 0,-14.103534 -2.7365,0 0,30.101573"
           style="font-size:42.10010147px;font-variant:normal;font-weight:300;writing-mode:lr-tb;fill:#050606;fill-opacity:1;fill-rule:nonzero;stroke:none;font-family:Futura;-inkscape-font-specification:FuturaPT-Light"
           id="path3049"
           inkscape:connector-curvature="0" /><path
           d="m 291.16436,0 2.73651,0 0,-27.533466 8.29372,0 0,-2.568107 -19.32395,0 0,2.568107 8.29372,0 0,27.533466"
           style="font-size:42.10010147px;font-variant:normal;font-weight:300;writing-mode:lr-tb;fill:#050606;fill-opacity:1;fill-rule:nonzero;stroke:none;font-family:Futura;-inkscape-font-specification:FuturaPT-Light"
           id="path3051"
           inkscape:connector-curvature="0" /><path
           d="m 308.88793,0 14.90344,0 0,-2.5681062 -12.16693,0 0,-12.9668308 12.16693,0 0,-2.568107 -12.16693,0 0,-9.430422 12.16693,0 0,-2.568107 -14.90344,0 0,30.101573"
           style="font-size:42.10010147px;font-variant:normal;font-weight:300;writing-mode:lr-tb;fill:#050606;fill-opacity:1;fill-rule:nonzero;stroke:none;font-family:Futura;-inkscape-font-specification:FuturaPT-Light"
           id="path3053"
           inkscape:connector-curvature="0" /><path
           d="m 339.24053,0 2.73651,0 0,-27.533466 8.29372,0 0,-2.568107 -19.32395,0 0,2.568107 8.29372,0 0,27.533466"
           style="font-size:42.10010147px;font-variant:normal;font-weight:300;writing-mode:lr-tb;fill:#050606;fill-opacity:1;fill-rule:nonzero;stroke:none;font-family:Futura;-inkscape-font-specification:FuturaPT-Light"
           id="path3055"
           inkscape:connector-curvature="0" /></g></g><path
       inkscape:connector-curvature="0"
       id="path20"
       style="fill:#ffffff;fill-opacity:1;stroke:#231f20;stroke-width:0.46355554;stroke-linecap:butt;stroke-linejoin:miter;stroke-miterlimit:4;stroke-opacity:1;stroke-dasharray:none"
       d="m 105.03814,81.850933 c 0.63646,-0.685366 0.89699,-1.492046 1.14545,-2.37804 0.33932,-1.206912 1.01518,-2.307672 1.3304,-3.507308 0.18821,-0.714849 0.26284,-1.719141 0.74679,-2.258163 0.60958,0.601509 0.86731,2.218344 1.14452,2.994243 0.51408,1.43503 1.23074,2.720145 1.80277,4.117532 0.11821,0.288239 0.13814,0.428234 0.29945,0.642999 -4.3e-4,0.106984 0.0366,0.198263 0.11167,0.273775 0.0357,0.117697 0.13027,0.148292 0.2837,0.09178 1.66648,0.128034 3.33018,0.284114 4.99156,0.467728 1.51491,0.10773 3.00988,0.343169 4.48351,0.705857 2.90325,0.666731 6.17781,1.422326 8.71391,3.070128 0.97719,0.646799 1.84774,1.412593 2.61076,2.29715 0.51408,0.936151 0.71479,1.94494 0.60308,3.025953 0.16641,3.435735 -0.60216,6.457188 -3.36589,8.798243 -3.73856,3.16608 -8.77972,3.35382 -13.40416,3.4405 -4.87383,0.0918 -9.98545,0.43714 -14.78047,-0.61328 -2.02713,-0.30456 -3.873464,-1.03882 -5.53902,-2.20281 -1.755022,-1.934237 -2.969074,-4.177058 -3.64262,-6.728607 -0.824202,-2.539591 -2.0364,-6.146239 0.06027,-8.420768 1.471789,-1.597273 3.687584,-2.38351 5.716567,-2.990488 1.221013,-0.365189 2.529623,-0.755087 3.807643,-0.82805 1.06711,-0.06045 2.15044,0.0019 3.22078,0.0019" /></g></svg>