<?xml version="1.0" encoding="UTF-8" standalone="no"?>
<!-- Created with Inkscape (http://www.inkscape.org/) -->

<svg
   xmlns:dc="http://purl.org/dc/elements/1.1/"
   xmlns:cc="http://creativecommons.org/ns#"
   xmlns:rdf="http://www.w3.org/1999/02/22-rdf-syntax-ns#"
   xmlns:svg="http://www.w3.org/2000/svg"
   xmlns="http://www.w3.org/2000/svg"
   xmlns:sodipodi="http://sodipodi.sourceforge.net/DTD/sodipodi-0.dtd"
   xmlns:inkscape="http://www.inkscape.org/namespaces/inkscape"
   id="svg2"
   version="1.1"
   inkscape:version="0.48.5 r10040"
   width="200"
   height="200"
   xml:space="preserve"
   sodipodi:docname="samtaloteket_favicon.svg"
   inkscape:export-filename="/Users/johan/Documents/Programmering/git/samtaloteket.github.io/assets/favicon/samtaloteket_favicon.png"
   inkscape:export-xdpi="162"
   inkscape:export-ydpi="162"><metadata
     id="metadata8"><rdf:RDF><cc:Work
         rdf:about=""><dc:format>image/svg+xml</dc:format><dc:type
           rdf:resource="http://purl.org/dc/dcmitype/StillImage" /><dc:title></dc:title></cc:Work></rdf:RDF></metadata><defs
     id="defs6" /><sodipodi:namedview
     pagecolor="#ffffff"
     bordercolor="#666666"
     borderopacity="1"
     objecttolerance="10"
     gridtolerance="10"
     guidetolerance="10"
     inkscape:pageopacity="0"
     inkscape:pageshadow="2"
     inkscape:window-width="903"
     inkscape:window-height="861"
     id="namedview4"
     showgrid="false"
     inkscape:zoom="1.54"
     inkscape:cx="118.01438"
     inkscape:cy="62.231253"
     inkscape:window-x="4"
     inkscape:window-y="1"
     inkscape:window-maximized="0"
     inkscape:current-layer="g10" /><g
     id="g10"
     inkscape:groupmode="layer"
     inkscape:label="ink_ext_XXXXXX"
     transform="matrix(1.25,0,0,-1.25,0,200)"><g
       id="g3904"
       transform="translate(-9.0000001e-7,-6.0571283)"><g
         transform="translate(0,-33.6)"
         id="g3122"><path
           inkscape:connector-curvature="0"
           id="path14"
           style="fill:#231f20;fill-opacity:1;fill-rule:nonzero;stroke:none"
           d="m 10.645306,67.959355 c -0.8166868,1.593444 -2.25081,1.633138 -2.6091551,1.633138 -1.5736536,0 -2.46998,-1.135093 -2.46998,-2.469791 0,-1.43391 0.9959356,-1.912038 2.3304496,-2.569192 1.3143499,-0.637425 1.9719294,-0.916325 2.6490485,-1.394405 0.577529,-0.398267 1.414181,-1.095351 1.414181,-2.56941 0,-2.230466 -1.872296,-3.883775 -4.1428828,-3.883775 -1.7130042,0 -2.5891855,0.816491 -3.0872455,1.394019 -0.5178386,0.597859 -0.7370227,1.115326 -0.8564099,1.454453 l 0.756796,0.35853 C 4.8093749,59.394532 5.1481284,58.877065 5.347167,58.637736 5.9448457,57.88094 6.9206408,57.50245 7.8367386,57.50245 c 1.7926528,0 3.2070234,1.314553 3.2070234,3.067469 0,0.717079 -0.279089,1.47387 -1.294957,2.091329 -0.3783483,0.218957 -1.1549014,0.617412 -2.2504509,1.155247 -1.3147379,0.637378 -1.9719199,0.995903 -2.4300635,1.752694 -0.2986524,0.497904 -0.4184067,0.99595 -0.4184067,1.513819 0,1.533548 1.0358568,3.306207 3.4062276,3.306207 1.3341213,0 2.5494535,-0.637189 3.2263835,-1.892073 l -0.637189,-0.537787" /><path
           inkscape:connector-curvature="0"
           id="path16"
           style="fill:#231f20;fill-opacity:1;fill-rule:nonzero;stroke:none"
           d="m 23.970434,62.08353 -2.489945,6.294246 -2.529309,-6.294246 5.019254,0 z m 0.318641,-0.796532 -5.656678,0 -1.772517,-4.362077 -0.956209,0 5.596972,13.683298 5.51711,-13.683298 -0.956019,0 -1.772659,4.362077" /><path
           inkscape:connector-curvature="0"
           id="path18"
           style="fill:#231f20;fill-opacity:1;fill-rule:nonzero;stroke:none"
           d="M 31.53934,56.924921 33.053111,70.668115 38.80938,58.379 l 5.75608,12.289115 1.513772,-13.743194 -0.876537,0 -1.175022,10.675909 c 0,0 -5.198517,-11.154013 -5.218293,-11.154013 l -5.218481,11.154013 -1.175023,-10.675909 -0.876536,0" /><path
           inkscape:connector-curvature="0"
           id="path20"
           style="fill:#231f20;fill-opacity:1;fill-rule:nonzero;stroke:none"
           d="m 54.086666,69.41323 0,-12.488309 -0.876205,0 0,12.488309 -3.445965,0 0,0.796722 7.76785,0 0,-0.796722 -3.44568,0" /><path
           inkscape:connector-curvature="0"
           id="path22"
           style="fill:#231f20;fill-opacity:1;fill-rule:nonzero;stroke:none"
           d="m 67.710895,62.08353 -2.489993,6.294246 -2.529261,-6.294246 5.019254,0 z m 0.318405,-0.796532 -5.656537,0 -1.77228,-4.362077 -0.956161,0 5.596924,13.683298 5.516969,-13.683298 -0.955688,0 -1.773227,4.362077" /><path
           inkscape:connector-curvature="0"
           id="path24"
           style="fill:#231f20;fill-opacity:1;fill-rule:nonzero;stroke:none"
           d="m 76.295527,70.209952 0,-12.487949 3.704946,0 0,-0.797082 -4.581151,0 0,13.285031 0.876205,0" /><path
           inkscape:connector-curvature="0"
           id="path26"
           style="fill:#231f20;fill-opacity:1;fill-rule:nonzero;stroke:none"
           d="m 96.193705,63.537784 c 0,3.405656 -2.549132,6.054709 -5.975415,6.054709 -3.42581,0 -5.974941,-2.649053 -5.974941,-6.054709 0,-3.386456 2.549131,-6.035334 5.974941,-6.035334 3.426283,0 5.975415,2.648878 5.975415,6.035334 z m 0.916419,0 c 0,-3.824454 -3.008051,-6.831864 -6.891834,-6.831864 -3.904127,0 -6.891361,3.00741 -6.891361,6.831864 0,3.824076 3.007578,6.851431 6.891361,6.851431 3.883783,0 6.891834,-3.027355 6.891834,-6.851431" /><path
           inkscape:connector-curvature="0"
           id="path28"
           style="fill:#231f20;fill-opacity:1;fill-rule:nonzero;stroke:none"
           d="m 104.75847,69.41323 0,-12.488309 -0.87668,0 0,12.488309 -3.44521,0 0,0.796722 7.76757,0 0,-0.796722 -3.44568,0" /><path
           inkscape:connector-curvature="0"
           id="path30"
           style="fill:#231f20;fill-opacity:1;fill-rule:nonzero;stroke:none"
           d="m 119.23903,69.41323 -5.4971,0 0,-4.819978 5.3774,0 0,-0.796722 -5.3774,0 0,-6.074527 5.4971,0 0,-0.797082 -6.3733,0 0,13.285031 6.3733,0 0,-0.796722" /><path
           inkscape:connector-curvature="0"
           id="path32"
           style="fill:#231f20;fill-opacity:1;fill-rule:nonzero;stroke:none"
           d="m 125.57306,63.955827 6.27395,6.254125 1.15487,0 -6.43339,-6.353763 6.81235,-6.931268 -1.19555,0 -6.25361,6.333963 -0.35862,-0.338748 0,-5.995215 -0.87667,0 0,13.285031 0.87667,0 0,-6.254125" /><path
           inkscape:connector-curvature="0"
           id="path34"
           style="fill:#231f20;fill-opacity:1;fill-rule:nonzero;stroke:none"
           d="m 144.41525,69.41323 -5.49709,0 0,-4.819978 5.3774,0 0,-0.796722 -5.3774,0 0,-6.074527 5.49709,0 0,-0.797082 -6.37377,0 0,13.285031 6.37377,0 0,-0.796722" /><path
           inkscape:connector-curvature="0"
           id="path36"
           style="fill:#231f20;fill-opacity:1;fill-rule:nonzero;stroke:none"
           d="m 152.68101,69.41323 0,-12.488309 -0.87668,0 0,12.488309 -3.44521,0 0,0.796722 7.76757,0 0,-0.796722 -3.44568,0" /></g><path
         d="m 53.806799,70.509089 c 2.263893,-2.437835 3.188877,-5.307337 4.074339,-8.458784 1.205291,-4.292786 3.60932,-8.208133 4.732189,-12.475199 0.66942,-2.542841 0.933242,-6.114941 2.654643,-8.03238 2.168228,2.139719 3.085021,7.890571 4.072667,10.650604 1.826929,5.104329 4.376045,9.675296 6.41072,14.645727 0.42048,1.025425 0.49137,1.522576 1.066828,2.28714 -0.0019,0.380713 0.1286,0.705212 0.395702,0.973809 0.126858,0.418632 0.463344,0.527471 1.00911,0.326555 5.92762,0.45526 11.845337,1.010577 17.754839,1.663688 5.390074,0.383187 10.705974,1.220486 15.949324,2.510534 10.32673,2.371548 21.97258,5.059336 30.99509,10.920492 3.47413,2.300661 6.57068,5.024379 9.28632,8.170738 1.82693,3.330023 2.54252,6.918087 2.14351,10.763347 0.59358,12.2208 -2.14185,22.968 -11.97066,31.2947 -13.29964,11.26234 -31.23088,11.9296 -47.678162,12.23811 -17.337669,0.32586 -35.517886,1.55488 -52.573603,-2.18207 -7.210416,-1.08348 -13.779432,-3.69508 -19.702134,-7.83404 C 16.183352,131.09141 11.864985,123.11378 9.4692152,114.038 6.5392126,105.00476 2.2274646,92.175885 9.6835497,84.085652 14.920277,78.404189 22.800149,75.607562 30.017151,73.448571 c 4.344714,-1.299146 8.997791,-2.685802 13.543665,-2.945338 3.797308,-0.215031 7.650656,0.007 11.456223,0.007"
         style="fill:#ffffff;fill-opacity:1;stroke:#231f20;stroke-width:1.64885068;stroke-linecap:butt;stroke-linejoin:miter;stroke-miterlimit:4;stroke-opacity:1;stroke-dasharray:none"
         id="path38"
         inkscape:connector-curvature="0" /></g></g></svg>