<?xml version="1.0" encoding="UTF-8" standalone="no"?>
<svg
   xmlns:dc="http://purl.org/dc/elements/1.1/"
   xmlns:cc="http://creativecommons.org/ns#"
   xmlns:rdf="http://www.w3.org/1999/02/22-rdf-syntax-ns#"
   xmlns:svg="http://www.w3.org/2000/svg"
   xmlns="http://www.w3.org/2000/svg"
   xmlns:sodipodi="http://sodipodi.sourceforge.net/DTD/sodipodi-0.dtd"
   xmlns:inkscape="http://www.inkscape.org/namespaces/inkscape"
   viewBox="0 0 100 100"
   id="svg2"
   version="1.1"
   inkscape:version="0.48.5 r10040"
   width="100%"
   height="100%"
   sodipodi:docname="samtaloteket-logo-light.svg">
  <metadata
     id="metadata16">
    <rdf:RDF>
      <cc:Work
         rdf:about="">
        <dc:format>image/svg+xml</dc:format>
        <dc:type
           rdf:resource="http://purl.org/dc/dcmitype/StillImage" />
      </cc:Work>
    </rdf:RDF>
  </metadata>
  <defs
     id="defs14" />
  <sodipodi:namedview
     pagecolor="#ffffff"
     bordercolor="#666666"
     borderopacity="1"
     objecttolerance="10"
     gridtolerance="10"
     guidetolerance="10"
     inkscape:pageopacity="0"
     inkscape:pageshadow="2"
     inkscape:window-width="1436"
     inkscape:window-height="855"
     id="namedview12"
     showgrid="false"
     inkscape:zoom="5.5976401"
     inkscape:cx="42.300162"
     inkscape:cy="47.771885"
     inkscape:window-x="4"
     inkscape:window-y="1"
     inkscape:window-maximized="1"
     inkscape:current-layer="svg2" />
  <path
     sodipodi:type="arc"
     style="fill:#000000;fill-opacity:1;stroke:none"
     id="path2992"
     sodipodi:cx="63.151611"
     sodipodi:cy="52.747944"
     sodipodi:rx="51.539577"
     sodipodi:ry="49.753109"
     d="m 114.69119,52.747944 a 51.539577,49.753109 0 1 1 -103.079156,0 51.539577,49.753109 0 1 1 103.079156,0 z"
     transform="matrix(0.96360485,0,0,1.0017953,-10.832121,-2.5064307)" />
  <flowRoot
     xml:space="preserve"
     id="flowRoot2998"
     style="font-size:40px;font-style:normal;font-weight:normal;text-align:center;line-height:125%;letter-spacing:0px;word-spacing:0px;text-anchor:middle;fill:#ffffff;fill-opacity:1;stroke:none;font-family:Sans"><flowRegion
       id="flowRegion3000"><rect
         id="rect3002"
         width="84.723221"
         height="79.904106"
         x="14.457357"
         y="18.696796"
         style="fill:#ffffff;fill-opacity:1" /></flowRegion><flowPara
       id="flowPara3004" /></flowRoot>  <g
     style="font-size:40px;font-style:normal;font-weight:normal;text-align:center;line-height:125%;letter-spacing:0px;word-spacing:0px;text-anchor:middle;fill:#ffffff;fill-opacity:1;stroke:none;font-family:Sans"
     id="text3774">
    <path
       d="m 67.261719,25.373047 0,11.109375 c -2.882853,-1.289022 -5.69535,-2.261677 -8.4375,-2.917969 -2.74222,-0.656207 -5.332061,-0.984331 -7.769532,-0.984375 -3.234398,4.4e-5 -5.625021,0.445356 -7.171875,1.335938 -1.546893,0.890666 -2.320329,2.273477 -2.320312,4.148437 -1.7e-5,1.406287 0.515607,2.507848 1.546875,3.304688 1.054667,0.773471 2.953103,1.441439 5.695312,2.003906 l 5.765625,1.160156 c 5.835902,1.171906 9.984335,2.953154 12.445313,5.34375 2.460892,2.390649 3.69136,5.789083 3.691406,10.195313 -4.6e-5,5.789072 -1.722701,10.101568 -5.167969,12.9375 -3.421912,2.8125 -8.660189,4.218749 -15.714843,4.21875 -3.328148,-10e-7 -6.667988,-0.316407 -10.019532,-0.949219 C 36.453113,75.646485 33.101554,74.708986 29.75,73.466797 l 0,-11.425781 c 3.351554,1.781262 6.585925,3.128917 9.703125,4.042968 3.140607,0.890635 6.164041,1.335947 9.070312,1.335938 2.953098,9e-6 5.214815,-0.492178 6.785157,-1.476563 1.570279,-0.984363 2.355435,-2.390612 2.355468,-4.21875 -3.3e-5,-1.640608 -0.539095,-2.906232 -1.617187,-3.796875 -1.054718,-0.890605 -3.17581,-1.68748 -6.363281,-2.390625 l -5.238282,-1.160156 c -5.250015,-1.124977 -9.093761,-2.917944 -11.53125,-5.378906 -2.414068,-2.460908 -3.621098,-5.777311 -3.621093,-9.949219 -5e-6,-5.22652 1.687493,-9.246047 5.0625,-12.058594 3.374986,-2.812448 8.226544,-4.218696 14.554687,-4.21875 2.882785,5.4e-5 5.847626,0.22271 8.894531,0.667969 3.046839,0.421927 6.199179,1.066458 9.457032,1.933594"
       style="font-size:72px;font-variant:normal;font-weight:bold;font-stretch:normal;font-family:Devanagari MT;-inkscape-font-specification:Devanagari MT Bold"
       id="path2989" />
  </g>
  <text
     xml:space="preserve"
     style="font-size:40px;font-style:normal;font-weight:normal;text-align:center;line-height:125%;letter-spacing:0px;word-spacing:0px;text-anchor:middle;fill:#000000;fill-opacity:1;stroke:none;font-family:Sans"
     x="53.415367"
     y="52.122681"
     id="text2991"
     sodipodi:linespacing="125%"><tspan
       sodipodi:role="line"
       id="tspan2993" /></text>
</svg>
