<?xml version="1.0" encoding="UTF-8" standalone="no"?>
<!-- Created with Inkscape (http://www.inkscape.org/) -->

<svg
   xmlns:dc="http://purl.org/dc/elements/1.1/"
   xmlns:cc="http://creativecommons.org/ns#"
   xmlns:rdf="http://www.w3.org/1999/02/22-rdf-syntax-ns#"
   xmlns:svg="http://www.w3.org/2000/svg"
   xmlns="http://www.w3.org/2000/svg"
   xmlns:sodipodi="http://sodipodi.sourceforge.net/DTD/sodipodi-0.dtd"
   xmlns:inkscape="http://www.inkscape.org/namespaces/inkscape"
   id="svg2"
   version="1.1"
   inkscape:version="0.48.5 r10040"
   width="441.525"
   height="136.35"
   xml:space="preserve"
   sodipodi:docname="samtaloteket_logo_svart.svg"><metadata
     id="metadata8"><rdf:RDF><cc:Work
         rdf:about=""><dc:format>image/svg+xml</dc:format><dc:type
           rdf:resource="http://purl.org/dc/dcmitype/StillImage" /></cc:Work></rdf:RDF></metadata><defs
     id="defs6" /><sodipodi:namedview
     pagecolor="#ffffff"
     bordercolor="#666666"
     borderopacity="1"
     objecttolerance="10"
     gridtolerance="10"
     guidetolerance="10"
     inkscape:pageopacity="0"
     inkscape:pageshadow="2"
     inkscape:window-width="862"
     inkscape:window-height="541"
     id="namedview4"
     showgrid="false"
     inkscape:zoom="0.93086463"
     inkscape:cx="220.7625"
     inkscape:cy="68.175003"
     inkscape:window-x="0"
     inkscape:window-y="0"
     inkscape:window-maximized="0"
     inkscape:current-layer="text16" /><g
     id="g10"
     inkscape:groupmode="layer"
     inkscape:label="ink_ext_XXXXXX"
     transform="matrix(1.25,0,0,-1.25,0,136.35)"><g
       id="g14"><g
         transform="matrix(1,0,0,-1,0,10.525)"
         style=""
         id="text16"><path
           d="m 1.4314035,-5.0520122 c 1.5998022,3.8732055 4.4205146,5.85191413 8.3779201,5.85191413 5.4309074,0 8.7989214,-3.41011363 8.7989214,-8.79892123 0,-4.5468067 -2.020809,-6.4834177 -6.441316,-8.8831217 -3.9153052,-2.147103 -6.6518157,-2.989111 -6.6518157,-6.651816 0,-2.947004 1.8524074,-4.841511 4.8415117,-4.841511 2.189203,0 3.87321,0.926204 4.715211,2.652306 l 2.105005,-1.263003 c -1.389302,-2.526004 -3.620611,-3.831109 -6.651816,-3.831109 -4.6310062,0 -7.7885184,2.989111 -7.7885184,7.241217 0,4.210006 2.7786115,6.146617 7.5359184,8.630521 3.536405,1.852403 5.725614,3.241711 5.725614,6.9465167 0,4.0416057 -2.27341,6.3571153 -6.0624151,6.3571153 -2.9470041,0 -5.3046136,-1.684007 -6.1466148,-4.6731112 l -2.3576056,1.263003"
           style="font-size:42.10010147px;font-variant:normal;font-weight:300;writing-mode:lr-tb;fill:#050606;fill-opacity:1;fill-rule:nonzero;stroke:none;font-family:Futura;-inkscape-font-specification:FuturaPT-Light"
           id="path3031" /><path
           d="m 26.733394,0 2.778607,0 3.99951,-10.188225 12.293229,0 L 49.635849,0 52.624957,0 39.952826,-31.280375 26.733394,0 m 7.704319,-12.54583 5.346713,-13.093132 5.136212,13.093132 -10.482925,0"
           style="font-size:42.10010147px;font-variant:normal;font-weight:300;writing-mode:lr-tb;fill:#050606;fill-opacity:1;fill-rule:nonzero;stroke:none;font-family:Futura;-inkscape-font-specification:FuturaPT-Light"
           id="path3033" /><path
           d="M 74.726921,1.1788028 85.462447,-22.986655 87.693752,0 90.514459,0 86.64125,-31.364576 74.684821,-4.5889111 63.149393,-31.364576 59.065683,0 61.88639,0 64.159795,-22.986655 74.726921,1.1788028"
           style="font-size:42.10010147px;font-variant:normal;font-weight:300;writing-mode:lr-tb;fill:#050606;fill-opacity:1;fill-rule:nonzero;stroke:none;font-family:Futura;-inkscape-font-specification:FuturaPT-Light"
           id="path3035" /><path
           d="m 107.7758,0 2.73651,0 0,-27.533466 8.29372,0 0,-2.568107 -19.323946,0 0,2.568107 8.293716,0 0,27.533466"
           style="font-size:42.10010147px;font-variant:normal;font-weight:300;writing-mode:lr-tb;fill:#050606;fill-opacity:1;fill-rule:nonzero;stroke:none;font-family:Futura;-inkscape-font-specification:FuturaPT-Light"
           id="path3037" /><path
           d="m 119.18558,0 2.77861,0 3.99951,-10.188225 12.29323,0 L 142.08804,0 145.07715,0 132.40501,-31.280375 119.18558,0 m 7.70432,-12.54583 5.34671,-13.093132 5.13622,13.093132 -10.48293,0"
           style="font-size:42.10010147px;font-variant:normal;font-weight:300;writing-mode:lr-tb;fill:#050606;fill-opacity:1;fill-rule:nonzero;stroke:none;font-family:Futura;-inkscape-font-specification:FuturaPT-Light"
           id="path3039" /><path
           d="m 153.45498,0 13.05103,0 0,-2.5681062 -10.31453,0 0,-27.5334668 -2.7365,0 0,30.101573"
           style="font-size:42.10010147px;font-variant:normal;font-weight:300;writing-mode:lr-tb;fill:#050606;fill-opacity:1;fill-rule:nonzero;stroke:none;font-family:Futura;-inkscape-font-specification:FuturaPT-Light"
           id="path3041" /><path
           d="m 202.45964,-14.987636 c 0,-4.252106 -1.6419,-8.251623 -4.71521,-11.240727 -3.0312,-2.989104 -6.98862,-4.546811 -11.40912,-4.546811 -4.42051,0 -8.33583,1.557707 -11.36703,4.546811 -3.07331,2.989104 -4.71521,6.946521 -4.71521,11.240727 0,4.210006 1.684,8.1674226 4.71521,11.1565268 3.0312,2.98910418 6.98862,4.63101113 11.36703,4.63101113 4.3363,0 8.33582,-1.64190695 11.40912,-4.63101113 3.03121,-2.9470042 4.71521,-6.9044208 4.71521,-11.1565268 m -16.12433,13.345732 c -7.36752,0 -13.17734,-5.9361217 -13.17734,-13.345732 0,-7.493811 5.89403,-13.387832 13.17734,-13.387832 7.32541,0 13.21943,5.936121 13.21943,13.387832 0,7.4096103 -5.85192,13.345732 -13.21943,13.345732"
           style="font-size:42.10010147px;font-variant:normal;font-weight:300;writing-mode:lr-tb;fill:#050606;fill-opacity:1;fill-rule:nonzero;stroke:none;font-family:Futura;-inkscape-font-specification:FuturaPT-Light"
           id="path3043" /><path
           d="m 214.87928,0 2.73651,0 0,-27.533466 8.29372,0 0,-2.568107 -19.32395,0 0,2.568107 8.29372,0 0,27.533466"
           style="font-size:42.10010147px;font-variant:normal;font-weight:300;writing-mode:lr-tb;fill:#050606;fill-opacity:1;fill-rule:nonzero;stroke:none;font-family:Futura;-inkscape-font-specification:FuturaPT-Light"
           id="path3045" /><path
           d="m 232.60288,0 14.90344,0 0,-2.5681062 -12.16693,0 0,-12.9668308 12.16693,0 0,-2.568107 -12.16693,0 0,-9.430422 12.16693,0 0,-2.568107 -14.90344,0 0,30.101573"
           style="font-size:42.10010147px;font-variant:normal;font-weight:300;writing-mode:lr-tb;fill:#050606;fill-opacity:1;fill-rule:nonzero;stroke:none;font-family:Futura;-inkscape-font-specification:FuturaPT-Light"
           id="path3047" /><path
           d="m 257.60966,0 2.7365,0 0,-15.282337 L 274.2392,0 l 3.95741,0 -14.94554,-15.703338 14.27193,-14.398235 -3.5785,0 -13.59834,14.103534 0,-14.103534 -2.7365,0 0,30.101573"
           style="font-size:42.10010147px;font-variant:normal;font-weight:300;writing-mode:lr-tb;fill:#050606;fill-opacity:1;fill-rule:nonzero;stroke:none;font-family:Futura;-inkscape-font-specification:FuturaPT-Light"
           id="path3049" /><path
           d="m 291.16436,0 2.73651,0 0,-27.533466 8.29372,0 0,-2.568107 -19.32395,0 0,2.568107 8.29372,0 0,27.533466"
           style="font-size:42.10010147px;font-variant:normal;font-weight:300;writing-mode:lr-tb;fill:#050606;fill-opacity:1;fill-rule:nonzero;stroke:none;font-family:Futura;-inkscape-font-specification:FuturaPT-Light"
           id="path3051" /><path
           d="m 308.88793,0 14.90344,0 0,-2.5681062 -12.16693,0 0,-12.9668308 12.16693,0 0,-2.568107 -12.16693,0 0,-9.430422 12.16693,0 0,-2.568107 -14.90344,0 0,30.101573"
           style="font-size:42.10010147px;font-variant:normal;font-weight:300;writing-mode:lr-tb;fill:#050606;fill-opacity:1;fill-rule:nonzero;stroke:none;font-family:Futura;-inkscape-font-specification:FuturaPT-Light"
           id="path3053" /><path
           d="m 339.24053,0 2.73651,0 0,-27.533466 8.29372,0 0,-2.568107 -19.32395,0 0,2.568107 8.29372,0 0,27.533466"
           style="font-size:42.10010147px;font-variant:normal;font-weight:300;writing-mode:lr-tb;fill:#050606;fill-opacity:1;fill-rule:nonzero;stroke:none;font-family:Futura;-inkscape-font-specification:FuturaPT-Light"
           id="path3055" /></g></g><path
       inkscape:connector-curvature="0"
       id="path20"
       style="fill:none;stroke:#231f20;stroke-width:1;stroke-linecap:butt;stroke-linejoin:miter;stroke-miterlimit:4;stroke-opacity:1;stroke-dasharray:none"
       d="m 234.628,61.3152 c 1.373,-1.4785 1.935,-3.2187 2.471,-5.13 0.732,-2.6036 2.19,-4.9782 2.87,-7.5661 0.406,-1.5421 0.567,-3.7086 1.611,-4.8714 1.315,1.2976 1.871,4.7855 2.469,6.4593 1.109,3.0957 2.655,5.868 3.889,8.8825 0.255,0.6218 0.298,0.9238 0.646,1.3871 -0.001,0.2308 0.079,0.4277 0.241,0.5906 0.077,0.2539 0.281,0.3199 0.612,0.198 3.595,0.2762 7.184,0.6129 10.768,1.009 3.268,0.2324 6.493,0.7403 9.672,1.5227 6.263,1.4383 13.327,3.0683 18.798,6.623 2.108,1.3953 3.986,3.0473 5.632,4.9555 1.109,2.0195 1.542,4.1957 1.301,6.5277 0.359,7.4117 -1.299,13.9297 -7.261,18.9799 -8.065,6.83 -18.94,7.235 -28.916,7.422 -10.514,0.198 -21.541,0.943 -31.885,-1.323 -4.373,-0.657 -8.356,-2.241 -11.949,-4.752 -3.786,-4.1726 -6.405,-9.0109 -7.858,-14.5152 -1.778,-5.4785 -4.393,-13.2589 0.13,-18.1656 3.175,-3.4457 7.955,-5.1418 12.332,-6.4512 2.634,-0.7878 5.457,-1.6289 8.214,-1.7863 2.302,-0.1304 4.639,0.0035 6.948,0.0035" /></g></svg>