<?xml version="1.0" encoding="UTF-8" standalone="no"?>
<!-- Created with Inkscape (http://www.inkscape.org/) -->

<svg
   xmlns:dc="http://purl.org/dc/elements/1.1/"
   xmlns:cc="http://creativecommons.org/ns#"
   xmlns:rdf="http://www.w3.org/1999/02/22-rdf-syntax-ns#"
   xmlns:svg="http://www.w3.org/2000/svg"
   xmlns="http://www.w3.org/2000/svg"
   xmlns:sodipodi="http://sodipodi.sourceforge.net/DTD/sodipodi-0.dtd"
   xmlns:inkscape="http://www.inkscape.org/namespaces/inkscape"
   id="svg2"
   version="1.1"
   inkscape:version="0.48.5 r10040"
   width="402.2625"
   height="124.4625"
   xml:space="preserve"
   sodipodi:docname="samtaloteket_logo_svart.eps"><metadata
     id="metadata8"><rdf:RDF><cc:Work
         rdf:about=""><dc:format>image/svg+xml</dc:format><dc:type
           rdf:resource="http://purl.org/dc/dcmitype/StillImage" /><dc:title></dc:title></cc:Work></rdf:RDF></metadata><defs
     id="defs6" /><sodipodi:namedview
     pagecolor="#ffffff"
     bordercolor="#666666"
     borderopacity="1"
     objecttolerance="10"
     gridtolerance="10"
     guidetolerance="10"
     inkscape:pageopacity="0"
     inkscape:pageshadow="2"
     inkscape:window-width="640"
     inkscape:window-height="480"
     id="namedview4"
     showgrid="false"
     inkscape:zoom="1.0217209"
     inkscape:cx="201.13126"
     inkscape:cy="62.231251"
     inkscape:window-x="0"
     inkscape:window-y="0"
     inkscape:window-maximized="0"
     inkscape:current-layer="g10" /><g
     id="g10"
     inkscape:groupmode="layer"
     inkscape:label="ink_ext_XXXXXX"
     transform="matrix(1.25,0,0,-1.25,0,124.4625)"><g
       id="g12"
       transform="scale(0.1,0.1)"><path
         d="m 143.137,243.336 c -17.262,33.68 -47.5745,34.519 -55.1487,34.519 -33.2617,0 -52.207,-23.992 -52.207,-52.203 0,-30.308 21.0507,-40.414 49.2578,-54.304 27.7809,-13.473 41.6799,-19.368 55.9919,-29.473 12.207,-8.418 29.891,-23.152 29.891,-54.3086 0,-47.1445 -39.574,-82.08984 -87.5665,-82.08984 -36.2071,0 -54.7266,17.25784 -65.2539,29.46484 C 7.15625,47.5781 2.52344,58.5156 0,65.6836 l 15.9961,7.5781 C 19.7852,62.3047 26.9453,51.3672 31.1523,46.3086 43.7852,30.3125 64.4102,22.3125 83.7734,22.3125 c 37.8906,0 67.7856,27.7852 67.7856,64.8359 0,15.1566 -5.899,31.1526 -27.371,44.2036 -7.997,4.628 -24.4107,13.05 -47.5669,24.418 -27.7891,13.472 -41.6797,21.05 -51.3633,37.046 -6.3125,10.524 -8.8437,21.051 -8.8437,31.997 0,32.414 21.8945,69.882 71.9961,69.882 28.1988,0 53.8868,-13.468 68.1948,-39.992 l -13.468,-11.367"
         style="fill:#231f20;fill-opacity:1;fill-rule:nonzero;stroke:none"
         id="path14" /><path
         d="m 424.785,119.141 -52.629,133.039 -53.461,-133.039 106.09,0 z m 6.735,-16.836 -119.563,0 -37.465,-92.1995 -20.211,0 118.301,289.2185 116.613,-289.2185 -20.207,0 -37.468,92.1995"
         style="fill:#231f20;fill-opacity:1;fill-rule:nonzero;stroke:none"
         id="path16" /><path
         d="M 584.766,10.1055 616.762,300.59 738.43,40.8398 860.094,300.59 892.09,10.1055 l -18.527,0 -24.836,225.6525 C 848.727,235.758 738.848,0 738.43,0 L 628.129,235.758 603.293,10.1055 l -18.527,0"
         style="fill:#231f20;fill-opacity:1;fill-rule:nonzero;stroke:none"
         id="path18" /><path
         d="m 1061.34,274.066 0,-263.9605 -18.52,0 0,263.9605 -72.836,0 0,16.84 164.186,0 0,-16.84 -72.83,0"
         style="fill:#231f20;fill-opacity:1;fill-rule:nonzero;stroke:none"
         id="path20" /><path
         d="m 1349.31,119.141 -52.63,133.039 -53.46,-133.039 106.09,0 z m 6.73,-16.836 -119.56,0 -37.46,-92.1995 -20.21,0 118.3,289.2185 116.61,-289.2185 -20.2,0 -37.48,92.1995"
         style="fill:#231f20;fill-opacity:1;fill-rule:nonzero;stroke:none"
         id="path22" /><path
         d="m 1530.76,290.906 0,-263.9529 78.31,0 0,-16.8476 -96.83,0 0,280.8005 18.52,0"
         style="fill:#231f20;fill-opacity:1;fill-rule:nonzero;stroke:none"
         id="path24" /><path
         d="m 1951.34,149.879 c 0,71.984 -53.88,127.976 -126.3,127.976 -72.41,0 -126.29,-55.992 -126.29,-127.976 0,-71.5782 53.88,-127.5665 126.29,-127.5665 72.42,0 126.3,55.9883 126.3,127.5665 z m 19.37,0 c 0,-80.836 -63.58,-144.40244 -145.67,-144.40244 -82.52,0 -145.66,63.56644 -145.66,144.40244 0,80.828 63.57,144.816 145.66,144.816 82.09,0 145.67,-63.988 145.67,-144.816"
         style="fill:#231f20;fill-opacity:1;fill-rule:nonzero;stroke:none"
         id="path26" /><path
         d="m 2132.37,274.066 0,-263.9605 -18.53,0 0,263.9605 -72.82,0 0,16.84 164.18,0 0,-16.84 -72.83,0"
         style="fill:#231f20;fill-opacity:1;fill-rule:nonzero;stroke:none"
         id="path28" /><path
         d="m 2438.44,274.066 -116.19,0 0,-101.878 113.66,0 0,-16.84 -113.66,0 0,-128.3949 116.19,0 0,-16.8476 -134.71,0 0,280.8005 134.71,0 0,-16.84"
         style="fill:#231f20;fill-opacity:1;fill-rule:nonzero;stroke:none"
         id="path30" /><path
         d="m 2572.32,158.715 132.61,132.191 24.41,0 -135.98,-134.297 143.99,-146.5035 -25.27,0 -132.18,133.8785 -7.58,-7.16 0,-126.7185 -18.53,0 0,280.8005 18.53,0 0,-132.191"
         style="fill:#231f20;fill-opacity:1;fill-rule:nonzero;stroke:none"
         id="path32" /><path
         d="m 2970.58,274.066 -116.19,0 0,-101.878 113.66,0 0,-16.84 -113.66,0 0,-128.3949 116.19,0 0,-16.8476 -134.72,0 0,280.8005 134.72,0 0,-16.84"
         style="fill:#231f20;fill-opacity:1;fill-rule:nonzero;stroke:none"
         id="path34" /><path
         d="m 3145.29,274.066 0,-263.9605 -18.53,0 0,263.9605 -72.82,0 0,16.84 164.18,0 0,-16.84 -72.83,0"
         style="fill:#231f20;fill-opacity:1;fill-rule:nonzero;stroke:none"
         id="path36" /><path
         d="m 2328.2,518.012 c 13.73,-14.785 19.34,-32.188 24.71,-51.301 7.31,-26.035 21.89,-49.781 28.7,-75.66 4.06,-15.422 5.66,-37.086 16.1,-48.715 13.15,12.977 18.71,47.855 24.7,64.594 11.08,30.957 26.54,58.679 38.88,88.824 2.55,6.219 2.98,9.234 6.47,13.871 -0.01,2.309 0.78,4.277 2.4,5.906 0.77,2.539 2.81,3.199 6.12,1.981 35.95,2.761 71.84,6.129 107.68,10.09 32.69,2.324 64.93,7.402 96.73,15.226 62.63,14.383 133.26,30.684 187.98,66.231 21.07,13.953 39.85,30.472 56.32,49.554 11.08,20.196 15.42,41.957 13,65.278 3.6,74.117 -12.99,139.297 -72.6,189.797 -80.66,68.304 -189.41,72.351 -289.16,74.222 -105.15,1.977 -215.41,9.43 -318.85,-13.234 -43.73,-6.571 -83.57,-22.41 -119.49,-47.512 -37.87,-41.73 -64.06,-90.113 -78.59,-145.156 -17.77,-54.785 -43.92,-132.59 1.3,-181.656 31.76,-34.457 79.55,-51.418 123.32,-64.512 26.35,-7.879 54.57,-16.289 82.14,-17.863 23.03,-1.305 46.4,0.035 69.48,0.035"
         style="fill:none;stroke:#231f20;stroke-opacity:1;stroke-width:10;stroke-linecap:butt;stroke-linejoin:miter;stroke-miterlimit:4;stroke-dasharray:none"
         id="path38" /></g></g></svg>