<?xml version="1.0" encoding="UTF-8" standalone="no"?>
<!-- Created with Inkscape (http://www.inkscape.org/) -->

<svg
   xmlns:dc="http://purl.org/dc/elements/1.1/"
   xmlns:cc="http://creativecommons.org/ns#"
   xmlns:rdf="http://www.w3.org/1999/02/22-rdf-syntax-ns#"
   xmlns:svg="http://www.w3.org/2000/svg"
   xmlns="http://www.w3.org/2000/svg"
   xmlns:sodipodi="http://sodipodi.sourceforge.net/DTD/sodipodi-0.dtd"
   xmlns:inkscape="http://www.inkscape.org/namespaces/inkscape"
   id="svg2"
   version="1.1"
   inkscape:version="0.48.5 r10040"
   width="200"
   height="200"
   xml:space="preserve"
   sodipodi:docname="samtaloteket_logo_svart_kvadrat.svg"><metadata
     id="metadata8"><rdf:RDF><cc:Work
         rdf:about=""><dc:format>image/svg+xml</dc:format><dc:type
           rdf:resource="http://purl.org/dc/dcmitype/StillImage" /><dc:title></dc:title></cc:Work></rdf:RDF></metadata><defs
     id="defs6" /><sodipodi:namedview
     pagecolor="#ffffff"
     bordercolor="#666666"
     borderopacity="1"
     objecttolerance="10"
     gridtolerance="10"
     guidetolerance="10"
     inkscape:pageopacity="0"
     inkscape:pageshadow="2"
     inkscape:window-width="1436"
     inkscape:window-height="855"
     id="namedview4"
     showgrid="false"
     inkscape:zoom="0.93086463"
     inkscape:cx="29.54243"
     inkscape:cy="68.175003"
     inkscape:window-x="4"
     inkscape:window-y="1"
     inkscape:window-maximized="1"
     inkscape:current-layer="g10"
     showguides="true"
     inkscape:guide-bbox="true" /><g
     id="g10"
     inkscape:groupmode="layer"
     inkscape:label="ink_ext_XXXXXX"
     transform="matrix(1.25,0,0,-1.25,0,199.99997)"><g
       id="g3821"
       transform="translate(-0.9451487,-10.459416)"><path
         inkscape:connector-curvature="0"
         id="path3031"
         style="font-size:42.10010147px;font-variant:normal;font-weight:300;writing-mode:lr-tb;fill:#050606;fill-opacity:1;fill-rule:nonzero;stroke:none;font-family:Futura;-inkscape-font-specification:FuturaPT-Light"
         d="m 9.1661479,49.332162 c 1.2195691,-2.952642 3.3698691,-4.461061 6.3866991,-4.461061 4.140117,0 6.707638,2.599615 6.707638,6.707638 0,3.466145 -1.540513,4.942472 -4.910377,6.771827 -2.984735,1.63679 -5.070846,2.278674 -5.070846,5.070846 0,2.246575 1.412137,3.690805 3.690806,3.690805 1.668885,0 2.952645,-0.706068 3.594524,-2.021919 l 1.604698,0.962819 c -1.0591,1.925636 -2.760083,2.92055 -5.070846,2.92055 -3.530332,0 -5.937383,-2.278674 -5.937383,-5.520161 0,-3.209393 2.118205,-4.68572 5.74482,-6.579263 2.69589,-1.412133 4.364779,-2.471237 4.364779,-5.295504 0,-3.081017 -1.733078,-4.846188 -4.621531,-4.846188 -2.246576,0 -4.043841,1.28376 -4.685719,3.56243 L 9.1661479,49.332162" /><path
         inkscape:connector-curvature="0"
         id="path3033"
         style="font-size:42.10010147px;font-variant:normal;font-weight:300;writing-mode:lr-tb;fill:#050606;fill-opacity:1;fill-rule:nonzero;stroke:none;font-family:Futura;-inkscape-font-specification:FuturaPT-Light"
         d="m 28.45449,45.480886 2.118202,0 3.048927,7.76674 9.371437,0 2.920551,-7.76674 2.278672,0 L 38.531995,69.326701 28.45449,45.480886 m 5.873196,9.564001 4.075934,9.981223 3.915463,-9.981223 -7.991397,0" /><path
         inkscape:connector-curvature="0"
         id="path3035"
         style="font-size:42.10010147px;font-variant:normal;font-weight:300;writing-mode:lr-tb;fill:#050606;fill-opacity:1;fill-rule:nonzero;stroke:none;font-family:Futura;-inkscape-font-specification:FuturaPT-Light"
         d="m 65.041161,44.582255 8.183961,18.421935 1.700979,-17.523304 2.150296,0 L 74.123753,69.39089 65.009067,48.979128 56.21532,69.39089 53.102206,45.480886 l 2.150296,0 1.733073,17.523304 8.055586,-18.421935" /><path
         inkscape:connector-curvature="0"
         id="path3037"
         style="font-size:42.10010147px;font-variant:normal;font-weight:300;writing-mode:lr-tb;fill:#050606;fill-opacity:1;fill-rule:nonzero;stroke:none;font-family:Futura;-inkscape-font-specification:FuturaPT-Light"
         d="m 90.235151,45.480886 2.08611,0 0,20.989452 6.322511,0 0,1.957733 -14.731129,0 0,-1.957733 6.322508,0 0,-20.989452" /><path
         inkscape:connector-curvature="0"
         id="path3039"
         style="font-size:42.10010147px;font-variant:normal;font-weight:300;writing-mode:lr-tb;fill:#050606;fill-opacity:1;fill-rule:nonzero;stroke:none;font-family:Futura;-inkscape-font-specification:FuturaPT-Light"
         d="m 98.933112,45.480886 2.118208,0 3.04892,7.76674 9.37144,0 2.92055,-7.76674 2.27868,0 -9.66029,23.845815 -10.077508,-23.845815 m 5.873198,9.564001 4.07593,9.981223 3.91547,-9.981223 -7.9914,0" /><path
         inkscape:connector-curvature="0"
         id="path3041"
         style="font-size:42.10010147px;font-variant:normal;font-weight:300;writing-mode:lr-tb;fill:#050606;fill-opacity:1;fill-rule:nonzero;stroke:none;font-family:Futura;-inkscape-font-specification:FuturaPT-Light"
         d="m 125.05754,45.480886 9.94912,0 0,1.957732 -7.86302,0 0,20.989453 -2.0861,0 0,-22.947185" /></g><g
       id="g3812"
       transform="translate(-1.2159886,1.6)"><path
         inkscape:connector-curvature="0"
         id="path3043"
         style="font-size:42.10010147px;font-variant:normal;font-weight:300;writing-mode:lr-tb;fill:#050606;fill-opacity:1;fill-rule:nonzero;stroke:none;font-family:Futura;-inkscape-font-specification:FuturaPT-Light"
         d="m 31.783781,17.373199 c 0,3.241487 -1.25166,6.290419 -3.59452,8.569088 -2.31076,2.278669 -5.3276,3.466149 -8.69746,3.466149 -3.36987,0 -6.35462,-1.18748 -8.66538,-3.466149 -2.3428601,-2.278669 -3.5945201,-5.295507 -3.5945201,-8.569088 0,-3.209393 1.28376,-6.226231 3.5945201,-8.5049001 2.31076,-2.278669 5.32761,-3.530336 8.66538,-3.530336 3.30567,0 6.3546,1.251667 8.69746,3.530336 2.31076,2.2465751 3.59452,5.2634131 3.59452,8.5049001 M 19.491801,7.1994129 c -5.61645,0 -10.0454201,4.5252541 -10.0454201,10.1737861 0,5.71272 4.4931701,10.20588 10.0454201,10.20588 5.58434,0 10.0775,-4.525254 10.0775,-10.20588 0,-5.648532 -4.46107,-10.1737861 -10.0775,-10.1737861" /><path
         inkscape:connector-curvature="0"
         id="path3045"
         style="font-size:42.10010147px;font-variant:normal;font-weight:300;writing-mode:lr-tb;fill:#050606;fill-opacity:1;fill-rule:nonzero;stroke:none;font-family:Futura;-inkscape-font-specification:FuturaPT-Light"
         d="m 41.251581,5.9477479 2.08611,0 0,20.9894521 6.32251,0 0,1.957733 -14.73113,0 0,-1.957733 6.32251,0 0,-20.9894521" /><path
         inkscape:connector-curvature="0"
         id="path3047"
         style="font-size:42.10010147px;font-variant:normal;font-weight:300;writing-mode:lr-tb;fill:#050606;fill-opacity:1;fill-rule:nonzero;stroke:none;font-family:Futura;-inkscape-font-specification:FuturaPT-Light"
         d="m 54.762731,5.9477479 11.36126,0 0,1.957732 -9.27515,0 0,9.8849401 9.27515,0 0,1.957733 -9.27515,0 0,7.189047 9.27515,0 0,1.957733 -11.36126,0 0,-22.9471851" /><path
         inkscape:connector-curvature="0"
         id="path3049"
         style="font-size:42.10010147px;font-variant:normal;font-weight:300;writing-mode:lr-tb;fill:#050606;fill-opacity:1;fill-rule:nonzero;stroke:none;font-family:Futura;-inkscape-font-specification:FuturaPT-Light"
         d="m 73.826021,5.9477479 2.08611,0 0,11.6501091 10.59101,-11.6501091 3.01683,0 -11.39336,11.9710491 10.87985,10.976136 -2.72798,0 -10.36635,-10.751478 0,10.751478 -2.08611,0 0,-22.9471851" /><path
         inkscape:connector-curvature="0"
         id="path3051"
         style="font-size:42.10010147px;font-variant:normal;font-weight:300;writing-mode:lr-tb;fill:#050606;fill-opacity:1;fill-rule:nonzero;stroke:none;font-family:Futura;-inkscape-font-specification:FuturaPT-Light"
         d="m 99.405611,5.9477479 2.086109,0 0,20.9894521 6.32251,0 0,1.957733 -14.731129,0 0,-1.957733 6.32251,0 0,-20.9894521" /><path
         inkscape:connector-curvature="0"
         id="path3053"
         style="font-size:42.10010147px;font-variant:normal;font-weight:300;writing-mode:lr-tb;fill:#050606;fill-opacity:1;fill-rule:nonzero;stroke:none;font-family:Futura;-inkscape-font-specification:FuturaPT-Light"
         d="m 112.91674,5.9477479 11.36126,0 0,1.957732 -9.27515,0 0,9.8849401 9.27515,0 0,1.957733 -9.27515,0 0,7.189047 9.27515,0 0,1.957733 -11.36126,0 0,-22.9471851" /><path
         inkscape:connector-curvature="0"
         id="path3055"
         style="font-size:42.10010147px;font-variant:normal;font-weight:300;writing-mode:lr-tb;fill:#050606;fill-opacity:1;fill-rule:nonzero;stroke:none;font-family:Futura;-inkscape-font-specification:FuturaPT-Light"
         d="m 136.05528,5.9477479 2.08611,0 0,20.9894521 6.32252,0 0,1.957733 -14.73114,0 0,-1.957733 6.32251,0 0,-20.9894521" /></g><path
       inkscape:connector-curvature="0"
       id="path20"
       style="fill:#ffffff;fill-opacity:1;stroke:#231f20;stroke-width:1.46571159;stroke-linecap:butt;stroke-linejoin:miter;stroke-miterlimit:4;stroke-opacity:1;stroke-dasharray:none"
       d="m 56.715449,82.235372 c 2.012421,-2.167054 2.836151,-4.717685 3.621772,-7.5191 1.072902,-3.816128 3.209909,-7.296607 4.206593,-11.089722 0.595079,-2.260274 0.831059,-5.435738 2.361262,-7.140068 1.92741,1.901908 2.742345,7.014163 3.618842,9.467471 1.625473,4.537404 3.891463,8.600796 5.700152,13.019185 0.373756,0.91138 0.436781,1.354024 0.946849,2.033089 -0.0015,0.338286 0.115792,0.626885 0.353237,0.865649 0.11286,0.372145 0.411864,0.468881 0.897015,0.290211 5.269234,0.404829 10.529674,0.898335 15.78278,1.478903 4.789953,0.340631 9.516879,1.085065 14.176369,2.231839 9.17975,2.108133 19.53354,4.497243 27.55245,9.707408 3.08971,2.045103 5.84231,4.466463 8.25488,7.263343 1.62547,2.95999 2.26013,6.14968 1.90689,9.56773 0.52619,10.8634 -1.90395,20.41692 -10.64253,27.81906 -11.82096,10.01081 -27.76057,10.60442 -42.382519,10.87851 -15.410489,0.29021 -31.572891,1.38217 -46.734213,-1.93914 -6.409556,-0.96297 -12.247486,-3.28465 -17.513788,-6.96506 -5.549186,-6.11583 -9.387885,-13.20738 -11.517564,-21.2751 -2.606035,-8.02991 -6.438871,-19.43373 0.190543,-26.625538 4.653635,-5.050403 11.659738,-7.536397 18.075158,-9.455599 3.860684,-1.154687 7.998388,-2.387498 12.039355,-2.618201 3.374068,-0.191128 6.799436,0.0059 10.183765,0.0059" /></g></svg>